<!-- Generated by IcoMoon.io -->
<svg version="1.1" xmlns="http://www.w3.org/2000/svg" width="1024" height="1024" viewBox="0 0 1024 1024">
<title></title>
<g id="icomoon-ignore">
</g>
<path fill="#000" d="M409.6 530.213c-160.051 0-295.497-105.251-340.963-250.309-10.589 33.766-16.304 69.68-16.304 106.948 0 197.31 159.949 357.259 357.259 357.259 197.325 0 357.259-159.949 357.259-357.259 0-37.263-5.726-73.182-16.304-106.948-45.457 145.057-180.912 250.309-340.963 250.309z"></path>
<path fill="#000" d="M953.903 891.108c0.823 1.571 1.44 3.211 1.851 4.914 0.411 1.709 0.617 3.486 0.617 5.326 0 5.531-1.537 9.914-4.617 13.143-3.091 3.234-7.28 4.846-12.572 4.846-5.303 0-9.497-1.611-12.594-4.846-3.091-3.229-4.64-7.611-4.64-13.143 0-1.84 0.217-3.617 0.64-5.326 0.411-1.703 1.023-3.343 1.829-4.914h6.88c-1.080 1.589-1.874 3.149-2.377 4.686-0.503 1.543-0.754 3.166-0.754 4.869 0 3.051 0.977 5.451 2.926 7.2 1.954 1.754 4.651 2.629 8.091 2.629 3.417 0 6.103-0.874 8.069-2.629 1.954-1.749 2.926-4.149 2.926-7.2 0-1.703-0.251-3.326-0.754-4.869-0.503-1.537-1.291-3.097-2.377-4.686z"></path>
<path fill="#000" d="M937.629 865.891c-0.331 0.703-0.577 1.394-0.731 2.080-0.149 0.686-0.229 1.383-0.229 2.080 0 2.046 0.657 3.623 1.966 4.731 1.314 1.097 3.189 1.646 5.623 1.646h11.474v7.954h-24.892v-7.954h4.091c-1.629-1.017-2.817-2.194-3.566-3.52-0.743-1.326-1.12-2.914-1.12-4.777 0-0.257 0.017-0.537 0.046-0.846 0.017-0.32 0.063-0.777 0.137-1.371z"></path>
<path fill="#000" d="M943.229 837.091h2.263v18.606c1.863-0.194 3.263-0.874 4.206-2.034 0.931-1.154 1.394-2.771 1.394-4.846 0-1.674-0.24-3.389-0.731-5.143-0.503-1.749-1.257-3.554-2.263-5.417h6.126c0.72 1.891 1.251 3.783 1.6 5.669 0.366 1.874 0.549 3.749 0.549 5.623 0 4.514-1.143 8.017-3.429 10.514-2.286 2.486-5.491 3.726-9.623 3.726-4.068 0-7.257-1.217-9.577-3.657-2.332-2.451-3.497-5.829-3.497-10.126 0-3.914 1.183-7.046 3.543-9.394 2.349-2.343 5.497-3.52 9.44-3.52zM940.577 845.274c-1.508 0-2.726 0.446-3.657 1.326-0.926 0.869-1.394 2.023-1.394 3.451 0 1.543 0.434 2.788 1.303 3.749s2.12 1.566 3.749 1.806z"></path>
<path fill="#000" d="M944.532 819.921c0 1.663 0.286 2.914 0.846 3.749 0.566 0.823 1.394 1.234 2.491 1.234 1.006 0 1.8-0.331 2.377-1.006 0.566-0.669 0.846-1.606 0.846-2.811 0-1.491-0.531-2.749-1.6-3.771-1.080-1.017-2.429-1.531-4.046-1.531h-0.914zM941.537 807.761h14.194v8.023h-3.68c1.508 1.069 2.606 2.274 3.291 3.612 0.686 1.326 1.029 2.943 1.029 4.846 0 2.577-0.743 4.674-2.24 6.286-1.508 1.6-3.463 2.4-5.874 2.4-2.909 0-5.040-0.994-6.4-2.994-1.371-2.011-2.057-5.166-2.057-9.463v-4.686h-0.617c-1.263 0-2.183 0.497-2.766 1.486-0.594 0.994-0.891 2.537-0.891 4.64 0 1.709 0.177 3.303 0.526 4.777 0.337 1.463 0.846 2.823 1.531 4.068h-6.080c-0.411-1.703-0.72-3.411-0.937-5.12-0.211-1.72-0.32-3.44-0.32-5.166 0-4.491 0.886-7.731 2.651-9.714 1.771-1.994 4.651-2.994 8.64-2.994z"></path>
<path fill="#000" d="M923.777 791.674h7.063v-8.206h5.691v8.206h10.56c1.16 0 1.943-0.229 2.354-0.686 0.4-0.469 0.594-1.383 0.594-2.743v-4.091h5.691v6.834c0 3.143-0.651 5.366-1.966 6.674-1.309 1.314-3.531 1.966-6.674 1.966h-10.56v3.954h-5.691v-3.954h-7.063z"></path>
<path fill="#000" d="M943.229 753.76h2.263v18.606c1.863-0.194 3.263-0.874 4.206-2.034 0.931-1.154 1.394-2.771 1.394-4.846 0-1.674-0.24-3.389-0.731-5.143-0.503-1.749-1.257-3.554-2.263-5.417h6.126c0.72 1.891 1.251 3.783 1.6 5.669 0.366 1.874 0.549 3.749 0.549 5.623 0 4.514-1.143 8.017-3.429 10.514-2.286 2.486-5.491 3.726-9.623 3.726-4.068 0-7.257-1.217-9.577-3.657-2.332-2.451-3.497-5.829-3.497-10.126 0-3.914 1.183-7.046 3.543-9.394 2.349-2.343 5.497-3.52 9.44-3.52zM940.577 761.943c-1.508 0-2.726 0.446-3.657 1.326-0.926 0.869-1.394 2.023-1.394 3.451 0 1.543 0.434 2.788 1.303 3.749s2.12 1.566 3.749 1.806z"></path>
<path fill="#000" d="M934.497 730.799h-13.349v-8h34.583v8h-3.589c1.463 1.097 2.537 2.309 3.223 3.634 0.669 1.314 1.006 2.834 1.006 4.571 0 3.063-1.217 5.589-3.657 7.566-2.434 1.966-5.566 2.949-9.394 2.949-3.84 0-6.977-0.983-9.417-2.949-2.434-1.977-3.657-4.503-3.657-7.566 0-1.72 0.343-3.246 1.029-4.571s1.76-2.537 3.223-3.634zM950.588 736.034c0-1.691-0.617-2.983-1.851-3.886-1.246-0.897-3.051-1.349-5.417-1.349-2.377 0-4.183 0.451-5.417 1.349-1.246 0.903-1.874 2.194-1.874 3.886s0.629 2.989 1.874 3.886c1.234 0.903 3.040 1.349 5.417 1.349 2.366 0 4.171-0.446 5.417-1.349 1.234-0.897 1.851-2.194 1.851-3.886z"></path>
<path fill="#000" d="M950.589 686.057c0-1.691-0.617-2.983-1.851-3.886-1.246-0.897-3.051-1.349-5.417-1.349-2.377 0-4.183 0.451-5.417 1.349-1.246 0.903-1.874 2.194-1.874 3.886 0 1.709 0.629 3.017 1.874 3.931 1.251 0.914 3.057 1.371 5.417 1.371 2.349 0 4.149-0.457 5.394-1.371 1.251-0.914 1.874-2.223 1.874-3.931zM934.497 691.36c-1.463-1.097-2.537-2.309-3.223-3.634-0.686-1.337-1.029-2.88-1.029-4.617 0-3.063 1.223-5.577 3.657-7.543 2.44-1.977 5.577-2.971 9.417-2.971 3.829 0 6.96 0.994 9.394 2.971 2.44 1.966 3.657 4.48 3.657 7.543 0 1.737-0.343 3.28-1.029 4.617-0.686 1.326-1.749 2.537-3.2 3.634h3.589v7.954h-34.583v-7.954z"></path>
<path fill="#000" d="M930.839 670.006v-7.954l16.892-6.697-16.892-5.691v-7.954l27.246 10.468c2.771 1.051 4.709 2.28 5.806 3.68 1.109 1.406 1.669 3.246 1.669 5.531v4.617h-5.234v-2.491c0-1.354-0.217-2.337-0.64-2.949-0.429-0.606-1.2-1.086-2.309-1.44l-0.686-0.206z"></path>
<path fill="#000" d="M949.697 600.726v13.394l6.034 2.103v8.594l-33.166-12.274v-10.217l33.166-12.274v8.594zM943.526 611.971v-9.074l-13.189 4.526z"></path>
<path fill="#000" d="M934.497 569.068h-13.349v-8h34.583v8h-3.589c1.463 1.097 2.537 2.309 3.223 3.634 0.669 1.314 1.006 2.834 1.006 4.571 0 3.063-1.217 5.589-3.657 7.566-2.434 1.966-5.566 2.949-9.394 2.949-3.84 0-6.977-0.983-9.417-2.949-2.434-1.977-3.657-4.503-3.657-7.566 0-1.72 0.343-3.246 1.029-4.571s1.76-2.537 3.223-3.634zM950.588 574.302c0-1.691-0.617-2.983-1.851-3.886-1.246-0.897-3.051-1.349-5.417-1.349-2.377 0-4.183 0.451-5.417 1.349-1.246 0.903-1.874 2.194-1.874 3.886s0.629 2.989 1.874 3.886c1.234 0.903 3.040 1.349 5.417 1.349 2.366 0 4.171-0.446 5.417-1.349 1.234-0.897 1.851-2.194 1.851-3.886z"></path>
<path fill="#000" d="M937.629 534.937c-0.331 0.703-0.577 1.394-0.731 2.080-0.149 0.686-0.229 1.383-0.229 2.080 0 2.046 0.657 3.623 1.966 4.731 1.314 1.097 3.189 1.646 5.623 1.646h11.474v7.954h-24.892v-7.954h4.091c-1.629-1.017-2.817-2.194-3.566-3.52-0.743-1.326-1.12-2.914-1.12-4.777 0-0.257 0.017-0.537 0.046-0.846 0.017-0.32 0.063-0.777 0.137-1.371z"></path>
<path fill="#000" d="M930.839 530.983v-7.954h24.892v7.954zM921.148 530.983v-7.954h6.491v7.954z"></path>
<path fill="#000" d="M944.532 504.229c0 1.663 0.286 2.914 0.846 3.749 0.566 0.823 1.394 1.234 2.491 1.234 1.006 0 1.8-0.331 2.377-1.006 0.566-0.669 0.846-1.606 0.846-2.811 0-1.491-0.531-2.749-1.6-3.771-1.080-1.017-2.429-1.531-4.046-1.531h-0.914zM941.537 492.069h14.194v8.023h-3.68c1.508 1.069 2.606 2.274 3.291 3.612 0.686 1.326 1.029 2.943 1.029 4.846 0 2.577-0.743 4.674-2.24 6.286-1.508 1.6-3.463 2.4-5.874 2.4-2.909 0-5.040-0.994-6.4-2.994-1.371-2.011-2.057-5.166-2.057-9.463v-4.686h-0.617c-1.263 0-2.183 0.497-2.766 1.486-0.594 0.994-0.891 2.537-0.891 4.64 0 1.709 0.177 3.303 0.526 4.777 0.337 1.463 0.846 2.823 1.531 4.068h-6.080c-0.411-1.703-0.72-3.411-0.937-5.12-0.211-1.72-0.32-3.44-0.32-5.166 0-4.491 0.886-7.731 2.651-9.714 1.771-1.994 4.651-2.994 8.64-2.994z"></path>
<path fill="#000" d="M940.578 459.645h15.154v8h-11.589c-2.149 0-3.623 0.057-4.434 0.16-0.823 0.091-1.429 0.251-1.829 0.48-0.514 0.32-0.92 0.749-1.211 1.28-0.286 0.537-0.434 1.137-0.434 1.806 0 1.663 0.651 2.971 1.943 3.931 1.28 0.949 3.051 1.417 5.303 1.417h12.251v7.954h-24.892v-7.954h3.657c-1.463-1.2-2.537-2.474-3.223-3.817-0.686-1.354-1.029-2.846-1.029-4.48 0-2.863 0.886-5.040 2.651-6.537 1.754-1.491 4.314-2.24 7.68-2.24z"></path>
<path fill="#000" d="M937.263 423.903c0-1.783-0.326-3.063-0.983-3.84-0.669-0.777-1.771-1.166-3.314-1.166-1.508 0-2.583 0.389-3.223 1.166-0.651 0.777-0.983 2.057-0.983 3.84v3.612h8.503zM943.183 427.514h12.549v8.549h-33.166v-13.051c0-4.371 0.731-7.577 2.194-9.623 1.463-2.040 3.783-3.063 6.949-3.063 2.194 0 4 0.537 5.417 1.6 1.406 1.051 2.434 2.646 3.086 4.777 0.274-1.154 0.886-2.2 1.829-3.131 0.931-0.926 2.354-1.863 4.274-2.811l9.417-4.64v9.097l-8.251 4.046c-1.657 0.823-2.788 1.657-3.383 2.491-0.606 0.84-0.914 1.954-0.914 3.337z"></path>
<path fill="#000" d="M951.503 384.445c1.463 1.097 2.537 2.309 3.223 3.634 0.674 1.314 1.006 2.834 1.006 4.571 0 3.034-1.194 5.549-3.589 7.543-2.389 1.983-5.44 2.971-9.143 2.971-3.714 0-6.766-0.989-9.143-2.971-2.377-1.994-3.566-4.509-3.566-7.543 0-1.737 0.343-3.257 1.029-4.571 0.674-1.326 1.749-2.537 3.223-3.634h-3.703v-8h22.377c4.006 0 7.063 1.269 9.166 3.794 2.114 2.531 3.177 6.194 3.177 10.994 0 1.554-0.126 3.057-0.366 4.503-0.229 1.451-0.589 2.903-1.074 4.366h-6.217c0.806-1.383 1.4-2.743 1.783-4.068 0.394-1.337 0.594-2.68 0.594-4.023 0-2.617-0.571-4.531-1.714-5.737-1.131-1.217-2.909-1.829-5.348-1.829zM936.029 389.679c0 1.646 0.611 2.937 1.829 3.863 1.206 0.914 2.92 1.371 5.143 1.371 2.286 0 4.017-0.44 5.189-1.326 1.177-0.897 1.76-2.2 1.76-3.909 0-1.646-0.6-2.926-1.806-3.84-1.217-0.926-2.931-1.394-5.143-1.394-2.223 0-3.937 0.469-5.143 1.394-1.217 0.914-1.829 2.194-1.829 3.84z"></path>
<path fill="#000" d="M946.040 369.057h-15.201v-8h2.491c1.36 0 3.057 0.011 5.097 0.023 2.029 0.017 3.383 0.023 4.068 0.023 2 0 3.44-0.046 4.32-0.137 0.886-0.103 1.526-0.286 1.92-0.549 0.52-0.32 0.926-0.737 1.211-1.257 0.274-0.531 0.411-1.143 0.411-1.829 0-1.657-0.629-2.96-1.897-3.909-1.28-0.943-3.051-1.417-5.326-1.417h-12.297v-7.954h24.892v7.954h-3.589c1.451 1.206 2.514 2.48 3.2 3.817 0.686 1.343 1.029 2.823 1.029 4.434 0 2.869-0.874 5.051-2.629 6.56-1.766 1.497-4.331 2.24-7.703 2.24z"></path>
<path fill="#000" d="M943.229 311.56h2.263v18.606c1.863-0.194 3.263-0.874 4.206-2.034 0.931-1.154 1.394-2.771 1.394-4.846 0-1.674-0.24-3.389-0.731-5.143-0.503-1.749-1.257-3.554-2.263-5.417h6.126c0.72 1.891 1.251 3.783 1.6 5.669 0.366 1.874 0.549 3.749 0.549 5.623 0 4.514-1.143 8.017-3.429 10.514-2.286 2.486-5.491 3.726-9.623 3.726-4.068 0-7.257-1.217-9.577-3.657-2.332-2.451-3.497-5.829-3.497-10.126 0-3.914 1.183-7.046 3.543-9.394 2.349-2.343 5.497-3.52 9.44-3.52zM940.577 319.743c-1.508 0-2.726 0.446-3.657 1.326-0.926 0.869-1.394 2.023-1.394 3.451 0 1.543 0.434 2.788 1.303 3.749s2.12 1.566 3.749 1.806z"></path>
<path fill="#000" d="M930.839 306.749v-21.715h5.554l13.646 13.12v-13.12h5.691v22.285h-5.554l-13.646-13.12v12.549z"></path>
<path fill="#000" d="M922.566 262.84v-14.194c0-4.217 0.937-7.457 2.811-9.714 1.874-2.269 4.543-3.406 8-3.406 3.474 0 6.149 1.137 8.023 3.406 1.874 2.257 2.811 5.497 2.811 9.714v5.646h11.52v8.549zM928.76 254.291h9.257v-4.731c0-1.657-0.4-2.937-1.211-3.84-0.806-0.914-1.949-1.371-3.429-1.371-1.474 0-2.611 0.457-3.406 1.371-0.806 0.903-1.211 2.183-1.211 3.84z"></path>
<path fill="#000" d="M943.229 205.005h2.263v18.606c1.863-0.194 3.263-0.874 4.206-2.034 0.931-1.154 1.394-2.771 1.394-4.846 0-1.674-0.24-3.389-0.731-5.143-0.503-1.749-1.257-3.554-2.263-5.417h6.126c0.72 1.891 1.251 3.783 1.6 5.669 0.366 1.874 0.549 3.749 0.549 5.623 0 4.514-1.143 8.017-3.429 10.514-2.286 2.486-5.491 3.726-9.623 3.726-4.068 0-7.257-1.217-9.577-3.657-2.332-2.451-3.497-5.829-3.497-10.126 0-3.914 1.183-7.046 3.543-9.394 2.349-2.343 5.497-3.52 9.44-3.52zM940.577 213.188c-1.508 0-2.726 0.446-3.657 1.326-0.926 0.869-1.394 2.023-1.394 3.451 0 1.543 0.434 2.788 1.303 3.749s2.12 1.566 3.749 1.806z"></path>
<path fill="#000" d="M937.629 180.491c-0.331 0.703-0.577 1.394-0.731 2.080-0.149 0.686-0.229 1.383-0.229 2.080 0 2.046 0.657 3.623 1.966 4.731 1.314 1.097 3.189 1.646 5.623 1.646h11.474v7.954h-24.892v-7.954h4.091c-1.629-1.017-2.817-2.194-3.566-3.52-0.743-1.326-1.12-2.914-1.12-4.777 0-0.257 0.017-0.537 0.046-0.846 0.017-0.32 0.063-0.777 0.137-1.371z"></path>
<path fill="#000" d="M943.229 151.691h2.263v18.606c1.863-0.194 3.263-0.874 4.206-2.034 0.931-1.154 1.394-2.771 1.394-4.846 0-1.674-0.24-3.389-0.731-5.143-0.503-1.749-1.257-3.554-2.263-5.417h6.126c0.72 1.891 1.251 3.783 1.6 5.669 0.366 1.874 0.549 3.749 0.549 5.623 0 4.514-1.143 8.017-3.429 10.514-2.286 2.486-5.491 3.726-9.623 3.726-4.068 0-7.257-1.217-9.577-3.657-2.332-2.451-3.497-5.829-3.497-10.126 0-3.914 1.183-7.046 3.543-9.394 2.349-2.343 5.497-3.52 9.44-3.52zM940.577 159.874c-1.508 0-2.726 0.446-3.657 1.326-0.926 0.869-1.394 2.023-1.394 3.451 0 1.543 0.434 2.788 1.303 3.749s2.12 1.566 3.749 1.806z"></path>
<path fill="#000" d="M930.839 146.886v-21.715h5.554l13.646 13.12v-13.12h5.691v22.285h-5.554l-13.646-13.12v12.549z"></path>
<path fill="#000" d="M966.662 901.395h5.234v4.411c0 1.131 0.206 1.914 0.617 2.354 0.4 0.446 1.097 0.663 2.103 0.663h1.737v-6.789h5.691v6.789h19.2v7.954h-19.2v3.954h-5.691v-3.954h-1.737c-2.709 0-4.714-0.754-6.011-2.263-1.291-1.508-1.943-3.846-1.943-7.017z"></path>
<path fill="#000" d="M983.143 879.491c-0.331 0.703-0.577 1.394-0.731 2.080-0.149 0.686-0.229 1.383-0.229 2.080 0 2.046 0.657 3.623 1.966 4.731 1.314 1.097 3.189 1.646 5.623 1.646h11.474v7.954h-24.892v-7.954h4.091c-1.629-1.017-2.817-2.194-3.566-3.52-0.743-1.326-1.12-2.914-1.12-4.777 0-0.257 0.017-0.537 0.046-0.846 0.017-0.32 0.063-0.777 0.137-1.371z"></path>
<path fill="#000" d="M981.452 863.697c0 1.754 0.634 3.097 1.897 4.023 1.269 0.931 3.097 1.394 5.486 1.394 2.377 0 4.2-0.463 5.463-1.394 1.269-0.926 1.897-2.269 1.897-4.023 0-1.737-0.629-3.063-1.897-3.977-1.263-0.926-3.086-1.394-5.463-1.394-2.389 0-4.217 0.469-5.486 1.394-1.263 0.914-1.897 2.24-1.897 3.977zM975.76 863.697c0-4.28 1.16-7.623 3.474-10.034 2.303-2.406 5.503-3.612 9.6-3.612 4.086 0 7.286 1.206 9.6 3.612 2.303 2.411 3.451 5.754 3.451 10.034 0 4.297-1.149 7.657-3.451 10.080-2.314 2.411-5.514 3.612-9.6 3.612-4.097 0-7.297-1.2-9.6-3.612-2.314-2.423-3.474-5.783-3.474-10.080z"></path>
<path fill="#000" d="M980.491 821.211c-1.537-1.006-2.709-2.2-3.52-3.589-0.806-1.383-1.211-2.909-1.211-4.571 0-2.863 0.886-5.040 2.651-6.537 1.754-1.491 4.314-2.24 7.68-2.24h15.154v8h-12.983c-0.183-0.011-0.377-0.023-0.594-0.023-0.211-0.011-0.509-0.023-0.891-0.023-1.766 0-3.046 0.263-3.84 0.777-0.789 0.52-1.189 1.36-1.189 2.514 0 1.508 0.629 2.674 1.874 3.497 1.251 0.823 3.051 1.251 5.394 1.28h12.229v8h-12.983c-2.754 0-4.531 0.24-5.326 0.709-0.789 0.474-1.189 1.32-1.189 2.537 0 1.526 0.634 2.709 1.897 3.543 1.251 0.823 3.034 1.234 5.348 1.234h12.251v8h-24.892v-8h3.657c-1.417-0.971-2.474-2.091-3.177-3.36-0.714-1.28-1.074-2.68-1.074-4.206 0-1.72 0.423-3.234 1.257-4.549 0.823-1.326 1.983-2.32 3.474-2.994z"></path>
<path fill="#000" d="M969.291 772.32h7.063v-8.206h5.691v8.206h10.56c1.16 0 1.943-0.229 2.354-0.686 0.4-0.469 0.594-1.383 0.594-2.743v-4.091h5.691v6.834c0 3.143-0.651 5.366-1.966 6.674-1.309 1.314-3.531 1.966-6.674 1.966h-10.56v3.954h-5.691v-3.954h-7.063z"></path>
<path fill="#000" d="M986.092 734.222h15.154v8h-11.566c-2.16 0-3.646 0.057-4.457 0.16-0.823 0.091-1.429 0.251-1.829 0.48-0.514 0.32-0.92 0.749-1.211 1.28-0.286 0.537-0.434 1.137-0.434 1.806 0 1.663 0.651 2.971 1.943 3.931 1.28 0.949 3.051 1.417 5.303 1.417h12.251v7.954h-34.583v-7.954h13.349c-1.463-1.2-2.537-2.474-3.223-3.817-0.686-1.354-1.029-2.846-1.029-4.48 0-2.863 0.886-5.040 2.651-6.537 1.754-1.491 4.314-2.24 7.68-2.24z"></path>
<path fill="#000" d="M988.743 702.005h2.263v18.606c1.863-0.194 3.263-0.874 4.206-2.034 0.931-1.154 1.394-2.771 1.394-4.846 0-1.674-0.24-3.389-0.731-5.143-0.503-1.749-1.257-3.554-2.263-5.417h6.126c0.72 1.891 1.251 3.783 1.6 5.669 0.366 1.874 0.549 3.749 0.549 5.623 0 4.514-1.143 8.017-3.429 10.514-2.286 2.486-5.491 3.726-9.623 3.726-4.068 0-7.257-1.217-9.577-3.657-2.332-2.451-3.497-5.829-3.497-10.126 0-3.914 1.183-7.046 3.543-9.394 2.349-2.343 5.497-3.52 9.44-3.52zM986.091 710.188c-1.508 0-2.726 0.446-3.657 1.326-0.926 0.869-1.394 2.023-1.394 3.451 0 1.543 0.434 2.788 1.303 3.749s2.12 1.566 3.749 1.806z"></path>
<path fill="#000" d="M968.080 679.771v-9.554l22.743-12.069h-22.743v-8.114h33.166v9.577l-22.765 12.046h22.765v8.114z"></path>
<path fill="#000" d="M981.452 630.212c0 1.754 0.634 3.097 1.897 4.023 1.269 0.931 3.097 1.394 5.486 1.394 2.377 0 4.2-0.463 5.463-1.394 1.269-0.926 1.897-2.269 1.897-4.023 0-1.737-0.629-3.063-1.897-3.977-1.263-0.926-3.086-1.394-5.463-1.394-2.389 0-4.217 0.469-5.486 1.394-1.263 0.914-1.897 2.24-1.897 3.977zM975.76 630.212c0-4.28 1.16-7.623 3.474-10.034 2.303-2.406 5.503-3.612 9.6-3.612 4.086 0 7.286 1.206 9.6 3.612 2.303 2.411 3.451 5.754 3.451 10.034 0 4.297-1.149 7.657-3.451 10.080-2.314 2.411-5.514 3.612-9.6 3.612-4.097 0-7.297-1.2-9.6-3.612-2.314-2.423-3.474-5.783-3.474-10.080z"></path>
<path fill="#000" d="M991.554 611.034h-15.201v-8h2.491c1.36 0 3.057 0.011 5.097 0.023 2.029 0.017 3.383 0.023 4.068 0.023 2 0 3.44-0.046 4.32-0.137 0.886-0.103 1.526-0.286 1.92-0.549 0.52-0.32 0.926-0.737 1.211-1.257 0.274-0.531 0.411-1.143 0.411-1.829 0-1.657-0.629-2.96-1.897-3.909-1.28-0.943-3.051-1.417-5.326-1.417h-12.297v-7.954h24.892v7.954h-3.589c1.451 1.206 2.514 2.48 3.2 3.817 0.686 1.343 1.029 2.823 1.029 4.434 0 2.869-0.874 5.051-2.629 6.56-1.766 1.497-4.331 2.24-7.703 2.24z"></path>
<path fill="#000" d="M986.092 553.354h15.154v8h-11.589c-2.149 0-3.623 0.057-4.434 0.16-0.823 0.091-1.429 0.251-1.829 0.48-0.514 0.32-0.92 0.749-1.211 1.28-0.286 0.537-0.434 1.137-0.434 1.806 0 1.663 0.651 2.971 1.943 3.931 1.28 0.949 3.051 1.417 5.303 1.417h12.251v7.954h-24.892v-7.954h3.657c-1.463-1.2-2.537-2.474-3.223-3.817-0.686-1.354-1.029-2.846-1.029-4.48 0-2.863 0.886-5.040 2.651-6.537 1.754-1.491 4.314-2.24 7.68-2.24z"></path>
<path fill="#000" d="M968.080 529.771v-14.194c0-4.217 0.937-7.457 2.811-9.714 1.874-2.269 4.543-3.406 8-3.406 3.474 0 6.149 1.137 8.023 3.406 1.874 2.257 2.811 5.497 2.811 9.714v5.646h11.52v8.549zM974.274 521.223h9.257v-4.731c0-1.657-0.4-2.937-1.211-3.84-0.806-0.914-1.949-1.371-3.429-1.371-1.474 0-2.611 0.457-3.406 1.371-0.806 0.903-1.211 2.183-1.211 3.84z"></path>
<path fill="#000" d="M983.143 478.291c-0.331 0.703-0.577 1.394-0.731 2.080-0.149 0.686-0.229 1.383-0.229 2.080 0 2.046 0.657 3.623 1.966 4.731 1.314 1.097 3.189 1.646 5.623 1.646h11.474v7.954h-24.892v-7.954h4.091c-1.629-1.017-2.817-2.194-3.566-3.52-0.743-1.326-1.12-2.914-1.12-4.777 0-0.257 0.017-0.537 0.046-0.846 0.017-0.32 0.063-0.777 0.137-1.371z"></path>
<path fill="#000" d="M981.452 462.497c0 1.754 0.634 3.097 1.897 4.023 1.269 0.931 3.097 1.394 5.486 1.394 2.377 0 4.2-0.463 5.463-1.394 1.269-0.926 1.897-2.269 1.897-4.023 0-1.737-0.629-3.063-1.897-3.977-1.263-0.926-3.086-1.394-5.463-1.394-2.389 0-4.217 0.469-5.486 1.394-1.263 0.914-1.897 2.24-1.897 3.977zM975.76 462.497c0-4.28 1.16-7.623 3.474-10.034 2.303-2.406 5.503-3.612 9.6-3.612 4.086 0 7.286 1.206 9.6 3.612 2.303 2.411 3.451 5.754 3.451 10.034 0 4.297-1.149 7.657-3.451 10.080-2.314 2.411-5.514 3.612-9.6 3.612-4.097 0-7.297-1.2-9.6-3.612-2.314-2.423-3.474-5.783-3.474-10.080z"></path>
<path fill="#000" d="M976.354 443.074v-7.954h24.458c3.32 0 5.857 0.8 7.611 2.4 1.766 1.6 2.651 3.92 2.651 6.949v3.931h-5.234v-1.371c0-1.508-0.343-2.543-1.029-3.109-0.674-0.56-2.006-0.846-4-0.846zM966.662 443.074v-7.954h6.491v7.954z"></path>
<path fill="#000" d="M988.743 402.628h2.263v18.606c1.863-0.194 3.263-0.874 4.206-2.034 0.931-1.154 1.394-2.771 1.394-4.846 0-1.674-0.24-3.389-0.731-5.143-0.503-1.749-1.257-3.554-2.263-5.417h6.126c0.72 1.891 1.251 3.783 1.6 5.669 0.366 1.874 0.549 3.749 0.549 5.623 0 4.514-1.143 8.017-3.429 10.514-2.286 2.486-5.491 3.726-9.623 3.726-4.068 0-7.257-1.217-9.577-3.657-2.332-2.451-3.497-5.829-3.497-10.126 0-3.914 1.183-7.046 3.543-9.394 2.349-2.343 5.497-3.52 9.44-3.52zM986.091 410.811c-1.508 0-2.726 0.446-3.657 1.326-0.926 0.869-1.394 2.023-1.394 3.451 0 1.543 0.434 2.788 1.303 3.749s2.12 1.566 3.749 1.806z"></path>
<path fill="#000" d="M977.132 376.492h6.491c-0.743 1.086-1.291 2.171-1.646 3.269-0.349 1.086-0.526 2.211-0.526 3.383 0 2.211 0.651 3.943 1.943 5.189 1.297 1.234 3.109 1.851 5.44 1.851 2.32 0 4.126-0.617 5.417-1.851 1.297-1.246 1.943-2.977 1.943-5.189 0-1.246-0.183-2.429-0.549-3.543-0.366-1.126-0.914-2.16-1.646-3.109h6.514c0.457 1.251 0.8 2.514 1.029 3.794s0.343 2.56 0.343 3.84c0 4.497-1.149 8.011-3.451 10.537-2.297 2.531-5.497 3.794-9.6 3.794-4.114 0-7.32-1.263-9.623-3.794-2.297-2.526-3.451-6.040-3.451-10.537 0-1.291 0.114-2.571 0.343-3.84 0.229-1.263 0.571-2.526 1.029-3.794z"></path>
<path fill="#000" d="M969.291 360.943h7.063v-8.206h5.691v8.206h10.56c1.16 0 1.943-0.229 2.354-0.686 0.4-0.469 0.594-1.383 0.594-2.743v-4.091h5.691v6.834c0 3.143-0.651 5.366-1.966 6.674-1.309 1.314-3.531 1.966-6.674 1.966h-10.56v3.954h-5.691v-3.954h-7.063z"></path>
</svg>
