<svg aria-hidden="true" style="position: absolute; width: 0; height: 0; overflow: hidden;" version="1.1" xmlns="http://www.w3.org/2000/svg" xmlns:xlink="http://www.w3.org/1999/xlink">
<defs>
<symbol id="icon-noun-moon-1903703" viewBox="0 0 32 32">
<path d="M13.54 2.197c-1.307-0.050-2.613 0.097-3.876 0.435-2.213 0.593-4.231 1.758-5.851 3.378s-2.785 3.638-3.378 5.851-0.593 4.543 0 6.756c0.896 3.343 3.084 6.193 6.081 7.923s6.559 2.199 9.902 1.304c0.562-0.156 1.113-0.35 1.65-0.579-1.962-0.35-3.784-1.252-5.253-2.599s-2.524-3.085-3.043-5.009c-0.72-2.691-0.343-5.557 1.050-7.969s3.687-4.172 6.378-4.892c1.937-0.515 3.981-0.465 5.891 0.144-1.168-1.418-2.623-2.574-4.269-3.391s-3.446-1.277-5.282-1.351zM3.524 8.114l-0 0c-0.888 1.246-1.476 2.823-1.707 4.579s-0.098 3.632 0.387 5.447c0.489 1.816 1.313 3.509 2.394 4.914s2.381 2.476 3.775 3.109c-1.546-0.299-3.058-1.207-4.328-2.598s-2.237-3.199-2.769-5.176c-0.528-1.976-0.595-4.022-0.192-5.861s1.255-3.38 2.441-4.414zM27.93 9.698l-0.428 2.473-1.927 1.607 2.473 0.428 1.607 1.928 0.428-2.473 1.927-1.607-2.473-0.428zM21.495 13.162l-0.428 2.473-1.927 1.607 2.473 0.428 1.607 1.927 0.428-2.473 1.928-1.607-2.473-0.428zM23.219 21.337l-0.428 2.473-1.927 1.608 2.473 0.428 1.607 1.927 0.428-2.473 1.927-1.607-2.473-0.428z"></path>
</symbol>
</defs>
</svg>
